<?xml version="1.0" encoding="UTF-8"?>
<svg width="560" height="84" viewBox="0 0 560 84" xmlns="http://www.w3.org/2000/svg" role="img" aria-label="BizGrowth Africa">
  <title>BizGrowth Africa</title>
  <g fill="none" fill-rule="evenodd">
    <!-- Simplified Africa glyph -->
    <path d="M34 9c8 2 14 8 17 13 2 4 6 3 8 7 3 6-3 8-4 11-1 3 2 5 2 8 0 3-2 4-4 6-2 2-2 4-2 6 0 2-4 5-7 6-6 2-11-1-14-4-3-3-5-5-8-5-3 0-6-2-6-5 0-3 3-5 5-7 3-3 2-4 1-7-1-2-1-5 1-7 2-2 4-2 6-3 2-1 3-3 4-6 1-3 5-9 11-12 3-2 6-2 10-1z" fill="#0A0A0A"/>
    <!-- Wordmark -->
    <text x="72" y="55" font-family="Poppins, Arial, sans-serif" font-size="44" font-weight="800" fill="#0A0A0A" letter-spacing="0">BIZGROWTH</text>
    <text x="72" y="78" font-family="Poppins, Arial, sans-serif" font-size="16" font-weight="600" fill="#0A0A0A" letter-spacing="4">AFRICA</text>
  </g>
</svg>
